<svg xmlns="http://www.w3.org/2000/svg" width="139" height="32" viewBox="0 0 139 32" fill="none">
  <g clip-path="url(#clip0_85_8306)">
    <path d="M14.0337 9.33823C13.2634 8.00763 11.3423 8.00763 10.572 9.33823L1.73796 24.5976C0.966061 25.9309 1.92818 27.5996 3.46883 27.5996H21.1369C22.6775 27.5996 23.6396 25.9309 22.8677 24.5976L14.0337 9.33823Z" fill="#083966"/>
    <path d="M22.4802 18.2602C23.2505 19.5908 25.1716 19.5908 25.9419 18.2602L34.7759 3.00087C35.5478 1.66754 34.5857 -0.00117302 33.0451 -0.00117302H15.377C13.8364 -0.00117302 12.8743 1.66754 13.6462 3.00087L22.4802 18.2602Z" fill="#006AA0"/>
    <mask id="mask0_85_8306" style="mask-type:luminance" maskUnits="userSpaceOnUse" x="0" y="0" width="139" height="30">
      <path d="M0.0253906 0.02561H139V30H0.0253906V0.02561Z" fill="white"/>
    </mask>
    <g mask="url(#mask0_85_8306)">
      <path d="M49.3079 19.0479C49.3079 18.204 49.2287 17.4058 49.0709 16.6543C48.9126 15.9026 48.6524 15.2435 48.2898 14.6769C47.927 14.1104 47.4356 13.6622 46.8154 13.3324C46.1952 13.0027 45.4231 12.8381 44.4989 12.8381C43.6445 12.8381 42.9104 12.9885 42.2961 13.2892C41.682 13.5899 41.1759 14.0148 40.778 14.5641C40.3801 15.1133 40.0847 15.764 39.8918 16.5154C39.6986 17.2673 39.6023 18.0881 39.6023 18.9788C39.6023 19.8346 39.6811 20.6379 39.8393 21.3897C39.9971 22.1416 40.2604 22.7976 40.6289 23.3585C40.9976 23.9195 41.4915 24.3645 42.1119 24.6941C42.7321 25.0235 43.504 25.1883 44.4286 25.1883C45.2712 25.1883 46.0022 25.0384 46.6225 24.7375C47.2427 24.4368 47.7514 24.0149 48.1493 23.4713C48.5472 22.9278 48.8396 22.2803 49.0268 21.5284C49.2142 20.7771 49.3079 19.9498 49.3079 19.0479ZM52.2816 18.8572C52.2816 20.1292 52.1139 21.3002 51.7774 22.3696C51.4412 23.4394 50.9395 24.3618 50.2735 25.1364C49.6065 25.9113 48.7714 26.5154 47.7684 26.9491C46.7654 27.3827 45.603 27.5996 44.2811 27.5996C42.9939 27.5996 41.872 27.4085 40.9156 27.0271C39.9589 26.6456 39.1614 26.0904 38.5239 25.3617C37.8859 24.6336 37.4107 23.7488 37.0976 22.708C36.7846 21.6673 36.6279 20.4878 36.6279 19.1695C36.6279 17.8972 36.7932 16.7266 37.1237 15.6569C37.4542 14.5871 37.9527 13.665 38.6197 12.8899C39.2862 12.1155 40.1181 11.5139 41.1156 11.0859C42.1127 10.6585 43.2781 10.4442 44.6116 10.4442C45.8988 10.4442 47.0205 10.6351 47.9772 11.0168C48.9338 11.3984 49.7313 11.9535 50.3689 12.6819C51.0061 13.4104 51.4843 14.295 51.8036 15.336C52.1227 16.3766 52.2816 17.5505 52.2816 18.8572Z" fill="#083966"/>
    </g>
    <mask id="mask1_85_8306" style="mask-type:luminance" maskUnits="userSpaceOnUse" x="0" y="0" width="139" height="30">
      <path d="M0.0253906 0.0256157H139V30H0.0253906V0.0256157Z" fill="white"/>
    </mask>
    <g mask="url(#mask1_85_8306)">
      <path d="M66.9274 15.8561C66.1503 14.8966 65.3994 14.1648 64.6748 13.6622C63.9502 13.159 63.1934 12.9072 62.4052 12.9072C61.6745 12.9072 61.0541 13.081 60.544 13.4277C60.0335 13.7748 59.6192 14.2316 59.3004 14.7982C58.9815 15.3647 58.7496 16.0068 58.6046 16.7238C58.4596 17.4407 58.3874 18.1692 58.3874 18.9091C58.3874 19.6955 58.4481 20.4646 58.5699 21.2163C58.6916 21.9678 58.9029 22.6359 59.2048 23.2195C59.5063 23.8038 59.9063 24.2722 60.4049 24.6246C60.9034 24.9777 61.5295 25.1537 62.2833 25.1537C62.6661 25.1537 63.034 25.1017 63.3878 24.9976C63.7416 24.8934 64.1038 24.72 64.475 24.4771C64.8458 24.2343 65.2343 23.9193 65.6404 23.5318C66.0461 23.1447 66.4751 22.6674 66.9274 22.1009V15.8561ZM69.8145 26.8363C69.8145 26.9288 69.7943 27.0096 69.7538 27.0791C69.713 27.1486 69.6435 27.2036 69.5451 27.2441C69.4464 27.2841 69.3161 27.316 69.1537 27.3395C68.9913 27.3625 68.7943 27.3741 68.5625 27.3741C68.319 27.3741 68.1159 27.3625 67.9535 27.3395C67.7909 27.316 67.6579 27.2841 67.5535 27.2441C67.4493 27.2036 67.3736 27.1486 67.3274 27.0791C67.2808 27.0096 67.2579 26.9288 67.2579 26.8363V24.7721C66.4343 25.6628 65.5794 26.3565 64.6922 26.8536C63.8052 27.3509 62.834 27.5996 61.7791 27.5996C60.631 27.5996 59.6509 27.3768 58.8395 26.9316C58.0277 26.4867 57.3699 25.8855 56.8653 25.1276C56.361 24.3704 55.9926 23.4797 55.7608 22.4566C55.5287 21.4329 55.4131 20.3548 55.4131 19.2214C55.4131 17.8799 55.5577 16.6688 55.8478 15.5874C56.1377 14.5062 56.5667 13.5838 57.1348 12.8208C57.7031 12.0575 58.4073 11.4705 59.2481 11.06C60.0889 10.6497 61.0599 10.4442 62.1615 10.4442C63.0775 10.4442 63.9155 10.6438 64.6748 11.0427C65.4343 11.4416 66.1851 12.0287 66.9274 12.8033V3.73143C66.9274 3.65055 66.9476 3.57252 66.9883 3.49697C67.0287 3.42217 67.107 3.36432 67.2232 3.32359C67.3388 3.28324 67.4867 3.24841 67.6665 3.21968C67.8465 3.19094 68.0755 3.1761 68.3537 3.1761C68.6436 3.1761 68.881 3.19094 69.0668 3.21968C69.2521 3.24841 69.3972 3.28324 69.5018 3.32359C69.6059 3.36432 69.6842 3.42217 69.7365 3.49697C69.7886 3.57252 69.8145 3.65055 69.8145 3.73143V26.8363Z" fill="#083966"/>
    </g>
    <mask id="mask2_85_8306" style="mask-type:luminance" maskUnits="userSpaceOnUse" x="0" y="0" width="139" height="30">
      <path d="M0.0253906 0.0256157H139V30H0.0253906V0.0256157Z" fill="white"/>
    </mask>
    <g mask="url(#mask2_85_8306)">
      <path d="M77.9903 27.0618C77.9903 27.1543 77.9668 27.2327 77.9206 27.2959C77.8741 27.3596 77.7991 27.4146 77.6945 27.4607C77.5899 27.5067 77.4449 27.5416 77.2598 27.565C77.0741 27.588 76.8363 27.5996 76.5464 27.5996C76.2682 27.5996 76.036 27.588 75.8509 27.565C75.6652 27.5416 75.5173 27.5067 75.4074 27.4607C75.2969 27.4146 75.2215 27.3596 75.1812 27.2959C75.1404 27.2327 75.1202 27.1543 75.1202 27.0618V11.4504C75.1202 11.3695 75.1404 11.2941 75.1812 11.2248C75.2215 11.1554 75.2969 11.0975 75.4074 11.0515C75.5173 11.0054 75.6652 10.9706 75.8509 10.9474C76.036 10.9241 76.2682 10.9125 76.5464 10.9125C76.8363 10.9125 77.0741 10.9241 77.2598 10.9474C77.4449 10.9706 77.5899 11.0054 77.6945 11.0515C77.7991 11.0975 77.8741 11.1554 77.9206 11.2248C77.9668 11.2941 77.9903 11.3695 77.9903 11.4504V27.0618ZM78.3206 6.17715C78.3206 6.84782 78.193 7.30457 77.938 7.54741C77.6829 7.79025 77.2132 7.91167 76.5291 7.91167C75.8564 7.91167 75.3957 7.79311 75.1465 7.55598C74.8969 7.31904 74.7725 6.87104 74.7725 6.21179C74.7725 5.54132 74.8997 5.08437 75.1551 4.84153C75.41 4.59869 75.8797 4.47727 76.564 4.47727C77.2363 4.47727 77.6974 4.59584 77.9466 4.83259C78.1958 5.06991 78.3206 5.51791 78.3206 6.17715Z" fill="#083966"/>
    </g>
    <mask id="mask3_85_8306" style="mask-type:luminance" maskUnits="userSpaceOnUse" x="0" y="0" width="139" height="30">
      <path d="M0.0253906 0.0256157H139V30H0.0253906V0.0256157Z" fill="white"/>
    </mask>
    <g mask="url(#mask3_85_8306)">
      <path d="M96.775 27.0618C96.775 27.1543 96.7515 27.2327 96.7054 27.2959C96.6592 27.3596 96.5838 27.4146 96.4792 27.4607C96.375 27.5067 96.2296 27.5416 96.0445 27.565C95.8588 27.588 95.627 27.5996 95.3487 27.5996C95.0589 27.5996 94.8211 27.588 94.6356 27.565C94.4499 27.5416 94.3053 27.5067 94.2007 27.4607C94.0965 27.4146 94.0207 27.3596 93.9745 27.2959C93.9284 27.2327 93.9053 27.1543 93.9053 27.0618V17.9203C93.9053 17.03 93.8356 16.3131 93.6965 15.7695C93.5572 15.226 93.3541 14.7576 93.0875 14.3644C92.8206 13.9716 92.4757 13.6706 92.0527 13.4625C91.6292 13.2543 91.1395 13.1501 90.5829 13.1501C89.8636 13.1501 89.1451 13.4047 88.4262 13.9134C87.707 14.4225 86.9534 15.1683 86.1651 16.1511V27.0618C86.1651 27.1543 86.1418 27.2327 86.0954 27.2959C86.0488 27.3596 85.9738 27.4146 85.8693 27.4607C85.7649 27.5067 85.6198 27.5416 85.4345 27.565C85.2489 27.588 85.0111 27.5996 84.7214 27.5996C84.443 27.5996 84.2109 27.588 84.0256 27.565C83.8399 27.5416 83.692 27.5067 83.5823 27.4607C83.4716 27.4146 83.3963 27.3596 83.3562 27.2959C83.3153 27.2327 83.2949 27.1543 83.2949 27.0618V11.4504C83.2949 11.3579 83.3125 11.2798 83.3472 11.2161C83.3821 11.1525 83.4518 11.0949 83.556 11.0427C83.6604 10.9906 83.7934 10.9557 83.956 10.9388C84.1184 10.9213 84.3329 10.9125 84.5997 10.9125C84.8546 10.9125 85.0662 10.9213 85.2344 10.9388C85.4025 10.9557 85.533 10.9906 85.6258 11.0427C85.7185 11.0949 85.7851 11.1525 85.8259 11.2161C85.8664 11.2798 85.8868 11.3579 85.8868 11.4504V13.5145C86.7677 12.5317 87.6463 11.812 88.5219 11.355C89.3972 10.8983 90.2813 10.6697 91.1744 10.6697C92.2179 10.6697 93.0963 10.8463 93.8097 11.1986C94.5224 11.5518 95.0991 12.0226 95.5399 12.6126C95.9808 13.2022 96.2968 13.8932 96.488 14.6853C96.6794 15.4774 96.775 16.4288 96.775 17.5389V27.0618Z" fill="#083966"/>
    </g>
    <mask id="mask4_85_8306" style="mask-type:luminance" maskUnits="userSpaceOnUse" x="0" y="0" width="139" height="30">
      <path d="M0.0253906 0.02561H139V30H0.0253906V0.02561Z" fill="white"/>
    </mask>
    <g mask="url(#mask4_85_8306)">
      <path d="M111.268 21.9669C111.268 22.8648 111.116 23.6632 110.814 24.3624C110.511 25.0616 110.082 25.6506 109.528 26.13C108.974 26.6088 108.314 26.9739 107.548 27.2241C106.782 27.4742 105.932 27.5996 104.997 27.5996C104.478 27.5996 103.984 27.5627 103.517 27.4894C103.049 27.4161 102.634 27.3257 102.27 27.2178C101.907 27.1097 101.608 27.0039 101.374 26.9004C101.141 26.7967 100.991 26.715 100.927 26.6543C100.861 26.594 100.816 26.5378 100.79 26.4861C100.764 26.4341 100.74 26.3717 100.719 26.2981C100.697 26.2252 100.682 26.1323 100.673 26.0198C100.664 25.9077 100.66 25.7737 100.66 25.6184C100.66 25.4719 100.667 25.3398 100.679 25.2237C100.693 25.1069 100.716 25.0121 100.751 24.9388C100.786 24.8656 100.827 24.8115 100.875 24.7767C100.922 24.7424 100.976 24.7249 101.037 24.7249C101.123 24.7249 101.257 24.779 101.439 24.8871C101.621 24.995 101.865 25.1114 102.173 25.2363C102.48 25.3617 102.861 25.4805 103.316 25.5926C103.77 25.705 104.309 25.7608 104.932 25.7608C105.512 25.7608 106.044 25.6921 106.529 25.5537C107.014 25.4158 107.431 25.1999 107.782 24.9063C108.132 24.6128 108.407 24.244 108.606 23.7992C108.805 23.3547 108.905 22.813 108.905 22.1741C108.905 21.639 108.821 21.1662 108.652 20.7561C108.483 20.3464 108.224 20.005 107.873 19.7334C107.523 19.4612 107.078 19.2587 106.542 19.1246C106.005 18.991 105.365 18.924 104.62 18.924C104.092 18.924 103.638 18.9499 103.257 19.0016C102.876 19.0534 102.521 19.0793 102.192 19.0793C101.95 19.0793 101.777 19.0235 101.673 18.911C101.569 18.7989 101.517 18.5831 101.517 18.2636V11.4395C101.517 11.1548 101.584 10.9434 101.718 10.8052C101.852 10.667 102.045 10.5979 102.296 10.5979H109.736C109.805 10.5979 109.872 10.6175 109.938 10.656C110.002 10.6952 110.056 10.7532 110.1 10.8311C110.143 10.9087 110.175 11.0083 110.197 11.1289C110.218 11.2498 110.23 11.3923 110.23 11.5562C110.23 11.867 110.188 12.1088 110.105 12.2813C110.022 12.4541 109.906 12.5403 109.757 12.5403H103.751V17.2407C104.042 17.1976 104.34 17.1718 104.645 17.163C104.949 17.1544 105.302 17.1501 105.702 17.1501C106.628 17.1501 107.436 17.2646 108.129 17.493C108.821 17.722 109.398 18.0457 109.861 18.4644C110.324 18.8832 110.674 19.3901 110.912 19.9857C111.15 20.5814 111.268 21.2418 111.268 21.9669Z" fill="#006AA0"/>
    </g>
    <mask id="mask5_85_8306" style="mask-type:luminance" maskUnits="userSpaceOnUse" x="0" y="0" width="139" height="30">
      <path d="M0.0253906 0.02561H139V30H0.0253906V0.02561Z" fill="white"/>
    </mask>
    <g mask="url(#mask5_85_8306)">
      <path d="M123.097 19.0924C123.097 18.2552 123.067 17.504 123.006 16.8393C122.946 16.1749 122.857 15.5878 122.74 15.0783C122.623 14.5692 122.472 14.1311 122.286 13.7638C122.099 13.3973 121.877 13.0952 121.617 12.8574C121.357 12.6202 121.061 12.4478 120.728 12.3395C120.394 12.2318 120.02 12.1777 119.605 12.1777C118.869 12.1777 118.271 12.3505 117.813 12.6958C117.354 13.0412 116.993 13.516 116.728 14.1201C116.464 14.7245 116.285 15.4323 116.19 16.2436C116.094 17.0553 116.047 17.9271 116.047 18.8593C116.047 20.1113 116.112 21.1752 116.242 22.051C116.372 22.9274 116.577 23.6418 116.858 24.1941C117.139 24.7468 117.499 25.1484 117.936 25.3984C118.373 25.6489 118.903 25.7739 119.527 25.7739C120.011 25.7739 120.437 25.6963 120.805 25.5408C121.174 25.3855 121.489 25.1634 121.754 24.8737C122.017 24.5849 122.236 24.2375 122.409 23.8316C122.582 23.426 122.721 22.9771 122.825 22.4849C122.928 21.993 123 21.4601 123.039 20.8857C123.078 20.3117 123.097 19.714 123.097 19.0924ZM125.383 18.9371C125.383 20.2234 125.28 21.3973 125.078 22.459C124.874 23.5208 124.536 24.4336 124.065 25.1979C123.593 25.9616 122.976 26.5531 122.214 26.9716C121.453 27.3903 120.513 27.5996 119.397 27.5996C118.341 27.5996 117.451 27.4118 116.728 27.0367C116.006 26.6608 115.424 26.1087 114.982 25.3792C114.541 24.6496 114.227 23.752 114.041 22.6859C113.854 21.6196 113.762 20.3961 113.762 19.0148C113.762 17.7372 113.866 16.5656 114.073 15.4989C114.281 14.4331 114.619 13.5181 115.086 12.7538C115.553 11.9903 116.168 11.399 116.93 10.9803C117.692 10.5614 118.626 10.3521 119.734 10.3521C120.799 10.3521 121.693 10.5399 122.415 10.9152C123.138 11.2909 123.721 11.8434 124.162 12.5726C124.603 13.3025 124.917 14.2 125.104 15.266C125.289 16.3325 125.383 17.556 125.383 18.9371Z" fill="#006AA0"/>
    </g>
    <mask id="mask6_85_8306" style="mask-type:luminance" maskUnits="userSpaceOnUse" x="0" y="0" width="139" height="30">
      <path d="M0.0253906 0.02561H139V30H0.0253906V0.02561Z" fill="white"/>
    </mask>
    <g mask="url(#mask6_85_8306)">
      <path d="M136.574 19.0924C136.574 18.2552 136.544 17.504 136.483 16.8393C136.422 16.1749 136.333 15.5878 136.217 15.0783C136.1 14.5692 135.948 14.1311 135.762 13.7638C135.576 13.3973 135.353 13.0952 135.094 12.8574C134.834 12.6202 134.537 12.4478 134.204 12.3395C133.871 12.2318 133.497 12.1777 133.081 12.1777C132.345 12.1777 131.748 12.3505 131.289 12.6958C130.831 13.0412 130.469 13.516 130.205 14.1201C129.941 14.7245 129.761 15.4323 129.666 16.2436C129.571 17.0553 129.524 17.9271 129.524 18.8593C129.524 20.1113 129.588 21.1752 129.718 22.051C129.848 22.9274 130.054 23.6418 130.335 24.1941C130.616 24.7468 130.976 25.1484 131.413 25.3984C131.85 25.6489 132.38 25.7739 133.003 25.7739C133.488 25.7739 133.914 25.6963 134.282 25.5408C134.65 25.3855 134.966 25.1634 135.23 24.8737C135.494 24.5849 135.712 24.2375 135.886 23.8316C136.059 23.426 136.197 22.9771 136.301 22.4849C136.405 21.993 136.477 21.4601 136.515 20.8857C136.555 20.3117 136.574 19.714 136.574 19.0924ZM138.859 18.9371C138.859 20.2234 138.757 21.3973 138.554 22.459C138.351 23.5208 138.013 24.4336 137.541 25.1979C137.069 25.9616 136.452 26.5531 135.691 26.9716C134.929 27.3903 133.99 27.5996 132.873 27.5996C131.817 27.5996 130.928 27.4118 130.205 27.0367C129.482 26.6608 128.9 26.1087 128.459 25.3792C128.017 24.6496 127.704 23.752 127.518 22.6859C127.331 21.6196 127.238 20.3961 127.238 19.0148C127.238 17.7372 127.342 16.5656 127.55 15.4989C127.758 14.4331 128.095 13.5181 128.563 12.7538C129.03 11.9903 129.645 11.399 130.406 10.9803C131.168 10.5614 132.103 10.3521 133.211 10.3521C134.276 10.3521 135.169 10.5399 135.892 10.9152C136.615 11.2909 137.197 11.8434 137.639 12.5726C138.08 13.3025 138.393 14.2 138.58 15.266C138.766 16.3325 138.859 17.556 138.859 18.9371Z" fill="#006AA0"/>
    </g>
    <rect x="45" y="7" width="2" height="24" rx="1" fill="#083966"/>
    <rect x="42" y="7" width="2" height="24" rx="1" fill="#083966"/>
  </g>
  <defs>
    <clipPath id="clip0_85_8306">
      <rect width="139" height="32" fill="white"/>
    </clipPath>
  </defs>
</svg>
